# xmcd CD database file
#
# Track frame offsets:
#	150
#	13695
#	28738
#	56205
#	69751
#	95260
#	109390
#	128393
#	151100
#
# Disc length: 2247 seconds
#
# Revision: 0
# Processed by: cddbd v1.5.2PL0 Copyright (c) Steve Scherf et al.
# Submitted via: CDex 1.70beta2
#
DISCID=6808c509
DTITLE=Manouchka - Swing fantome
DYEAR=2005
DGENRE=Jazz
TTITLE0=Swing fantôme
TTITLE1=Vagues à l'âme
TTITLE2=Maëldhi
TTITLE3=Estern
TTITLE4=Lady Mauro
TTITLE5=Alastor
TTITLE6=Makilly
TTITLE7=Après Djandjo
TTITLE8=Gavanon
EXTD=YEAR: 2005
EXTT0=
EXTT1=
EXTT2=
EXTT3=
EXTT4=
EXTT5=
EXTT6=
EXTT7=
EXTT8=
PLAYORDER=
